<?xml version="1.0" encoding="UTF-8" standalone="no"?>
<!DOCTYPE svg PUBLIC "-//W3C//DTD SVG 1.1//EN" "http://www.w3.org/Graphics/SVG/1.1/DTD/svg11.dtd">
<!-- Generated by Microsoft Visio, SVG Export Forms - Download Attachments.svg Page-1 -->
<svg xmlns="http://www.w3.org/2000/svg" xmlns:xlink="http://www.w3.org/1999/xlink" xmlns:ev="http://www.w3.org/2001/xml-events"
		xmlns:v="http://schemas.microsoft.com/visio/2003/SVGExtensions/" width="11in" height="8.5in" viewBox="0 0 792 612"
		xml:space="preserve" color-interpolation-filters="sRGB" class="st14">
	<v:documentProperties v:langID="1033" v:viewMarkup="false">
		<v:userDefs>
			<v:ud v:nameU="msvSubprocessMaster" v:prompt="" v:val="VT4(Rectangle)"/>
			<v:ud v:nameU="msvNoAutoConnect" v:val="VT0(1):26"/>
			<v:ud v:nameU="visV14CFF" v:prompt="" v:val="VT0(1):26"/>
			<v:ud v:nameU="visFlowchartType" v:prompt="" v:val="VT4(CrossFunctional)"/>
			<v:ud v:nameU="visTLShowProps" v:prompt="" v:val="VT0(0):26"/>
		</v:userDefs>
	</v:documentProperties>

	<style type="text/css">
	<![CDATA[
		.st1 {stroke:#4672c4;stroke-linecap:round;stroke-linejoin:round;stroke-width:1}
		.st2 {fill:#4672c4;stroke:#c7c8c8;stroke-width:0.25}
		.st3 {fill:#feffff;font-family:Calibri;font-size:1.00001em}
		.st4 {fill:none;stroke:none;stroke-width:0.25}
		.st5 {fill:#4672c4;font-family:Calibri;font-size:1.5em}
		.st6 {fill:#4672c4;font-family:Calibri;font-size:1.00001em}
		.st7 {fill:#3c63ac;stroke:#30518f;stroke-width:0.75}
		.st8 {fill:#feffff;font-family:Calibri;font-size:0.833336em}
		.st9 {stroke:#c8c8c8;stroke-width:0.25}
		.st10 {fill:#595959;font-family:Calibri;font-size:0.666664em}
		.st11 {font-size:1em}
		.st12 {font-size:1em;font-weight:bold}
		.st13 {fill:#ed7d31;stroke:#c7c8c8;stroke-width:0.25}
		.st14 {fill:none;fill-rule:evenodd;font-size:12px;overflow:visible;stroke-linecap:square;stroke-miterlimit:3}
	]]>
	</style>

	<g v:mID="0" v:index="1" v:groupContext="foregroundPage">
		<v:custProps>
			<v:cp v:nameU="Theme" v:type="1" v:format="Classic;Contemporary;Elegant;Notepad;Retro" v:langID="1033"
					v:val="VT4(Classic)"/>
		</v:custProps>
		<v:userDefs>
			<v:ud v:nameU="msvThemeOrder" v:val="VT0(0):26"/>
		</v:userDefs>
		<title>Page-1</title>
		<v:pageProperties v:drawingScale="1" v:pageScale="1" v:drawingUnits="0" v:shadowOffsetX="9" v:shadowOffsetY="-9"/>
		<v:layer v:name="Annotations" v:index="0"/>
		<v:layer v:name="Azure" v:index="1"/>
		<g id="shape26-1" v:mID="26" v:groupContext="shape" transform="translate(999,90) rotate(90)">
			<title>Sheet.26</title>
			<path d="M0 612 L432 612" class="st1"/>
		</g>
		<g id="shape27-4" v:mID="27" v:groupContext="shape" transform="translate(135,-522)">
			<title>Sheet.27</title>
			<desc>Client</desc>
			<v:textBlock v:margins="rect(4,4,4,4)"/>
			<v:textRect cx="126" cy="598.5" width="252" height="27"/>
			<rect x="0" y="585" width="252" height="27" class="st2"/>
			<text x="111.9" y="602.1" class="st3" v:langID="1033"><v:paragraph v:horizAlign="1"/><v:tabList/>Client</text>		</g>
		<g id="shape28-7" v:mID="28" v:groupContext="shape" transform="translate(387,-522)">
			<title>Sheet.28</title>
			<desc>Xenqu</desc>
			<v:textBlock v:margins="rect(4,4,4,4)"/>
			<v:textRect cx="126" cy="598.5" width="252" height="27"/>
			<rect x="0" y="585" width="252" height="27" class="st2"/>
			<text x="110.44" y="602.1" class="st3" v:langID="1033"><v:paragraph v:horizAlign="1"/><v:tabList/>Xenqu</text>		</g>
		<g id="shape31-10" v:mID="31" v:groupContext="shape" transform="translate(153,-558)">
			<title>Sheet.31</title>
			<desc>Form: Download Attachments</desc>
			<v:textBlock v:margins="rect(4,4,4,4)"/>
			<v:textRect cx="234" cy="598.5" width="468" height="27"/>
			<rect x="0" y="585" width="468" height="27" class="st4"/>
			<text x="124" y="603.9" class="st5" v:langID="1033"><v:paragraph v:horizAlign="1"/><v:tabList/>Form: Download Attachments</text>		</g>
		<g id="shape32-13" v:mID="32" v:groupContext="shape" transform="translate(141.75,-493)">
			<title>Sheet.32</title>
			<desc>Baseurl: /jform/instance</desc>
			<v:textBlock v:margins="rect(4,4,4,4)"/>
			<v:textRect cx="76" cy="602" width="152" height="20"/>
			<rect x="0" y="592" width="152" height="20" class="st4"/>
			<text x="4" y="605.6" class="st6" v:langID="1033"><v:paragraph/><v:tabList/>Baseurl: /jform/instance</text>		</g>
		<g id="group40-16" transform="translate(248.087,-395.598)" v:mID="40" v:groupContext="group">
			<title>Sheet.40</title>
			<g id="shape38-17" v:mID="38" v:groupContext="shape">
				<title>Simple Arrow.38</title>
				<desc>_temp_handle_id</desc>
				<v:userDefs>
					<v:ud v:nameU="visVersion" v:val="VT0(15):26"/>
					<v:ud v:nameU="ArrowType" v:prompt="" v:val="VT0(2):26"/>
				</v:userDefs>
				<v:textBlock v:margins="rect(4,4,4,4)"/>
				<v:textRect cx="136.957" cy="612" width="273.92" height="0"/>
				<path d="M0 612 L12 600 L12 606 L273.91 606 L273.91 612 L273.91 618 L12 618 L12 624 L0 612 Z" class="st7"/>
				<text x="101.02" y="615" class="st8" v:langID="1033"><v:paragraph v:horizAlign="1"/><v:tabList/>_temp_handle_id</text>			</g>
			<g id="shape39-20" v:mID="39" v:groupContext="shape" transform="translate(277.826,1201.5) rotate(180)">
				<title>Simple Arrow.39</title>
				<desc>GET /:instance_id/file/:files_id</desc>
				<v:userDefs>
					<v:ud v:nameU="visVersion" v:val="VT0(15):26"/>
					<v:ud v:nameU="ArrowType" v:prompt="" v:val="VT0(2):26"/>
				</v:userDefs>
				<v:textBlock v:margins="rect(4,4,4,4)"/>
				<v:textRect cx="136.957" cy="612" width="273.92" height="0" transform="rotate(180)"/>
				<path d="M0 612 L12 600 L12 606 L273.91 606 L273.91 612 L273.91 618 L12 618 L12 624 L0 612 Z" class="st7"/>
				<text x="-198.72" y="-609" transform="rotate(180)" class="st8" v:langID="1033"><v:paragraph v:horizAlign="1"/><v:tabList/>GET /:instance_id/file/:files_id</text>			</g>
		</g>
		<g id="group43-23" transform="translate(248.087,-459)" v:mID="43" v:groupContext="group">
			<title>Sheet.43</title>
			<g id="shape30-24" v:mID="30" v:groupContext="shape">
				<title>Simple Arrow.30</title>
				<desc>Form Instance</desc>
				<v:userDefs>
					<v:ud v:nameU="visVersion" v:val="VT0(15):26"/>
					<v:ud v:nameU="ArrowType" v:prompt="" v:val="VT0(2):26"/>
				</v:userDefs>
				<v:textBlock v:margins="rect(4,4,4,4)"/>
				<v:textRect cx="136.957" cy="612" width="273.92" height="0"/>
				<path d="M0 612 L12 600 L12 606 L273.91 606 L273.91 612 L273.91 618 L12 618 L12 624 L0 612 Z" class="st7"/>
				<text x="108.01" y="615" class="st8" v:langID="1033"><v:paragraph v:horizAlign="1"/><v:tabList/>Form Instance</text>			</g>
			<g id="shape33-27" v:mID="33" v:groupContext="shape" transform="translate(279.462,1200.27) rotate(180)">
				<title>Simple Arrow.33</title>
				<desc>GET /:instance_id</desc>
				<v:userDefs>
					<v:ud v:nameU="visVersion" v:val="VT0(15):26"/>
					<v:ud v:nameU="ArrowType" v:prompt="" v:val="VT0(2):26"/>
				</v:userDefs>
				<v:textBlock v:margins="rect(4,4,4,4)"/>
				<v:textRect cx="136.957" cy="612" width="273.92" height="0" transform="rotate(180)"/>
				<path d="M0 612 L12 600 L12 606 L273.91 606 L273.91 612 L273.91 618 L12 618 L12 624 L0 612 Z" class="st7"/>
				<text x="-172.68" y="-609" transform="rotate(180)" class="st8" v:langID="1033"><v:paragraph v:horizAlign="1"/><v:tabList/>GET /:instance_id</text>			</g>
		</g>
		<g id="group44-30" transform="translate(248.087,-321.048)" v:mID="44" v:groupContext="group">
			<title>Sheet.44</title>
			<g id="shape45-31" v:mID="45" v:groupContext="shape">
				<title>Simple Arrow.38</title>
				<desc>File Contents</desc>
				<v:userDefs>
					<v:ud v:nameU="visVersion" v:val="VT0(15):26"/>
					<v:ud v:nameU="ArrowType" v:prompt="" v:val="VT0(2):26"/>
				</v:userDefs>
				<v:textBlock v:margins="rect(4,4,4,4)"/>
				<v:textRect cx="136.957" cy="612" width="273.92" height="0"/>
				<path d="M0 612 L12 600 L12 606 L273.91 606 L273.91 612 L273.91 618 L12 618 L12 624 L0 612 Z" class="st7"/>
				<text x="110.4" y="615" class="st8" v:langID="1033"><v:paragraph v:horizAlign="1"/><v:tabList/>File Contents</text>			</g>
			<g id="shape46-34" v:mID="46" v:groupContext="shape" transform="translate(277.826,1201.5) rotate(180)">
				<title>Simple Arrow.39</title>
				<desc>GET /files/:_temp_handle_id</desc>
				<v:userDefs>
					<v:ud v:nameU="visVersion" v:val="VT0(15):26"/>
					<v:ud v:nameU="ArrowType" v:prompt="" v:val="VT0(2):26"/>
				</v:userDefs>
				<v:textBlock v:margins="rect(4,4,4,4)"/>
				<v:textRect cx="136.957" cy="612" width="273.92" height="0" transform="rotate(180)"/>
				<path d="M0 612 L12 600 L12 606 L273.91 606 L273.91 612 L273.91 618 L12 618 L12 624 L0 612 Z" class="st7"/>
				<text x="-195.52" y="-609" transform="rotate(180)" class="st8" v:langID="1033"><v:paragraph v:horizAlign="1"/><v:tabList/>GET /files/:_temp_handle_id</text>			</g>
		</g>
		<g id="shape65-37" v:mID="65" v:groupContext="shape" transform="translate(141.75,-355.852)">
			<title>Sheet.65</title>
			<desc>Baseurl: /</desc>
			<v:textBlock v:margins="rect(4,4,4,4)"/>
			<v:textRect cx="76" cy="602" width="152" height="20"/>
			<rect x="0" y="592" width="152" height="20" class="st4"/>
			<text x="4" y="605.6" class="st6" v:langID="1033"><v:paragraph/><v:tabList/>Baseurl: /</text>		</g>
		<g id="shape66-40" v:mID="66" v:groupContext="shape" transform="translate(72,-447.662)">
			<title>Partial bracket text</title>
			<desc>Begin with fetching the form instance. Select the active, ena...</desc>
			<v:userDefs>
				<v:ud v:nameU="visVersion" v:val="VT0(15):26"/>
			</v:userDefs>
			<v:textBlock v:margins="rect(4,4,4,4)"/>
			<v:textRect cx="63" cy="588.798" width="126" height="46.4035"/>
			<path d="M18 565.6 L0 565.6 L0 612 L18 612" class="st9"/>
			<text x="4" y="576.8" class="st10" v:langID="1033"><v:paragraph/><v:tabList/>Begin with fetching the form <tspan x="4"
						dy="1.2em" class="st11">instance.  Select the active, enabled </tspan><tspan x="4" dy="1.2em" class="st11">atttachment objects from </tspan><tspan
						x="4" dy="1.2em" class="st12">definition.sudo_fields</tspan></text>		</g>
		<g id="shape68-47" v:mID="68" v:groupContext="shape" transform="translate(36,-460.864)">
			<title>Sheet.68</title>
			<desc>1</desc>
			<v:textBlock v:margins="rect(4,4,4,4)"/>
			<v:textRect cx="10" cy="602" width="20" height="20"/>
			<ellipse cx="10" cy="602" rx="10" ry="10" class="st13"/>
			<text x="6.96" y="605.6" class="st3" v:langID="1033"><v:paragraph v:horizAlign="1"/><v:tabList/>1</text>		</g>
		<g id="shape69-50" v:mID="69" v:groupContext="shape" transform="translate(72,-386.197)">
			<title>Partial bracket text.69</title>
			<desc>Using the files_id from each attachment object, request a tem...</desc>
			<v:userDefs>
				<v:ud v:nameU="visVersion" v:val="VT0(15):26"/>
			</v:userDefs>
			<v:textBlock v:margins="rect(4,4,4,4)"/>
			<v:textRect cx="63" cy="593.598" width="126" height="36.8035"/>
			<path d="M18 575.2 L0 575.2 L0 612 L18 612" class="st9"/>
			<text x="4" y="586.4" class="st10" v:langID="1033"><v:paragraph/><v:tabList/>Using the files_id from each <tspan x="4"
						dy="1.2em" class="st11">attachment object, request a </tspan><tspan x="4" dy="1.2em" class="st11">temporary download handle.</tspan></text>		</g>
		<g id="shape70-56" v:mID="70" v:groupContext="shape" transform="translate(36,-394.598)">
			<title>Sheet.70</title>
			<desc>2</desc>
			<v:textBlock v:margins="rect(4,4,4,4)"/>
			<v:textRect cx="10" cy="602" width="20" height="20"/>
			<ellipse cx="10" cy="602" rx="10" ry="10" class="st13"/>
			<text x="6.96" y="605.6" class="st3" v:langID="1033"><v:paragraph v:horizAlign="1"/><v:tabList/>2</text>		</g>
		<g id="shape75-59" v:mID="75" v:groupContext="shape" transform="translate(72,-317.25)">
			<title>Partial bracket text.75</title>
			<desc>Download the file using the provided handle.</desc>
			<v:userDefs>
				<v:ud v:nameU="visVersion" v:val="VT0(15):26"/>
			</v:userDefs>
			<v:textBlock v:margins="rect(4,4,4,4)"/>
			<v:textRect cx="63" cy="598.398" width="126" height="27.2035"/>
			<path d="M18 584.8 L0 584.8 L0 612 L18 612" class="st9"/>
			<text x="4" y="596" class="st10" v:langID="1033"><v:paragraph/><v:tabList/>Download the file using the <tspan x="4"
						dy="1.2em" class="st11">provided handle.</tspan></text>		</g>
		<g id="shape76-64" v:mID="76" v:groupContext="shape" transform="translate(36,-320.852)">
			<title>Sheet.76</title>
			<desc>3</desc>
			<v:textBlock v:margins="rect(4,4,4,4)"/>
			<v:textRect cx="10" cy="602" width="20" height="20"/>
			<ellipse cx="10" cy="602" rx="10" ry="10" class="st13"/>
			<text x="6.96" y="605.6" class="st3" v:langID="1033"><v:paragraph v:horizAlign="1"/><v:tabList/>3</text>		</g>
	</g>
</svg>
