<?xml version="1.0" encoding="UTF-8" standalone="no"?>
<!DOCTYPE svg PUBLIC "-//W3C//DTD SVG 1.1//EN" "http://www.w3.org/Graphics/SVG/1.1/DTD/svg11.dtd">
<!-- Generated by Microsoft Visio, SVG Export Tracking - Add to Record.svg Page-1 -->
<svg xmlns="http://www.w3.org/2000/svg" xmlns:xlink="http://www.w3.org/1999/xlink" xmlns:ev="http://www.w3.org/2001/xml-events"
		xmlns:v="http://schemas.microsoft.com/visio/2003/SVGExtensions/" width="11in" height="8.5in" viewBox="0 0 792 612"
		xml:space="preserve" color-interpolation-filters="sRGB" class="st16">
	<v:documentProperties v:langID="1033" v:viewMarkup="false">
		<v:userDefs>
			<v:ud v:nameU="msvSubprocessMaster" v:prompt="" v:val="VT4(Rectangle)"/>
			<v:ud v:nameU="msvNoAutoConnect" v:val="VT0(1):26"/>
			<v:ud v:nameU="visV14CFF" v:prompt="" v:val="VT0(1):26"/>
			<v:ud v:nameU="visFlowchartType" v:prompt="" v:val="VT4(CrossFunctional)"/>
			<v:ud v:nameU="visTLShowProps" v:prompt="" v:val="VT0(0):26"/>
		</v:userDefs>
	</v:documentProperties>

	<style type="text/css">
	<![CDATA[
		.st1 {stroke:#4672c4;stroke-linecap:round;stroke-linejoin:round;stroke-width:1}
		.st2 {fill:#4672c4;stroke:#c7c8c8;stroke-width:0.25}
		.st3 {fill:#feffff;font-family:Calibri;font-size:1.00001em}
		.st4 {fill:none;stroke:none;stroke-width:0.25}
		.st5 {fill:#4672c4;font-family:Calibri;font-size:1.5em}
		.st6 {fill:#4672c4;font-family:Calibri;font-size:1.00001em}
		.st7 {fill:#3c63ac;stroke:#30518f;stroke-width:0.75}
		.st8 {fill:#feffff;font-family:Calibri;font-size:0.833336em}
		.st9 {stroke:#c8c8c8;stroke-width:0.25}
		.st10 {fill:#595959;font-family:Calibri;font-size:0.666664em}
		.st11 {fill:#ed7d31;stroke:#c7c8c8;stroke-width:0.25}
		.st12 {font-size:1em}
		.st13 {stroke:#4672c4;stroke-dasharray:7,5;stroke-linecap:round;stroke-linejoin:round;stroke-width:1}
		.st14 {fill:#ffffff;stroke:none;stroke-linecap:butt;stroke-width:7.2}
		.st15 {fill:#3c63ac;font-family:Calibri;font-size:1.00001em}
		.st16 {fill:none;fill-rule:evenodd;font-size:12px;overflow:visible;stroke-linecap:square;stroke-miterlimit:3}
	]]>
	</style>

	<g v:mID="0" v:index="1" v:groupContext="foregroundPage">
		<v:custProps>
			<v:cp v:nameU="Theme" v:type="1" v:format="Classic;Contemporary;Elegant;Notepad;Retro" v:langID="1033"
					v:val="VT4(Classic)"/>
		</v:custProps>
		<v:userDefs>
			<v:ud v:nameU="msvThemeOrder" v:val="VT0(0):26"/>
		</v:userDefs>
		<title>Page-1</title>
		<v:pageProperties v:drawingScale="1" v:pageScale="1" v:drawingUnits="0" v:shadowOffsetX="9" v:shadowOffsetY="-9"/>
		<v:layer v:name="Annotations" v:index="0"/>
		<v:layer v:name="Azure" v:index="1"/>
		<g id="shape26-1" v:mID="26" v:groupContext="shape" transform="translate(999,90) rotate(90)">
			<title>Sheet.26</title>
			<path d="M0 612 L441 612" class="st1"/>
		</g>
		<g id="shape27-4" v:mID="27" v:groupContext="shape" transform="translate(135,-522)">
			<title>Sheet.27</title>
			<desc>Client</desc>
			<v:textBlock v:margins="rect(4,4,4,4)"/>
			<v:textRect cx="126" cy="598.5" width="252" height="27"/>
			<rect x="0" y="585" width="252" height="27" class="st2"/>
			<text x="111.9" y="602.1" class="st3" v:langID="1033"><v:paragraph v:horizAlign="1"/><v:tabList/>Client</text>		</g>
		<g id="shape28-7" v:mID="28" v:groupContext="shape" transform="translate(387,-522)">
			<title>Sheet.28</title>
			<desc>Xenqu</desc>
			<v:textBlock v:margins="rect(4,4,4,4)"/>
			<v:textRect cx="126" cy="598.5" width="252" height="27"/>
			<rect x="0" y="585" width="252" height="27" class="st2"/>
			<text x="110.44" y="602.1" class="st3" v:langID="1033"><v:paragraph v:horizAlign="1"/><v:tabList/>Xenqu</text>		</g>
		<g id="shape31-10" v:mID="31" v:groupContext="shape" transform="translate(153,-558)">
			<title>Sheet.31</title>
			<desc>Tracking: Add to Record</desc>
			<v:textBlock v:margins="rect(4,4,4,4)"/>
			<v:textRect cx="234" cy="598.5" width="468" height="27"/>
			<rect x="0" y="585" width="468" height="27" class="st4"/>
			<text x="146.52" y="603.9" class="st5" v:langID="1033"><v:paragraph v:horizAlign="1"/><v:tabList/>Tracking: Add to Record</text>		</g>
		<g id="shape32-13" v:mID="32" v:groupContext="shape" transform="translate(141.75,-493)">
			<title>Sheet.32</title>
			<desc>Baseurl: /tracking/groups/:group_id</desc>
			<v:textBlock v:margins="rect(4,4,4,4)"/>
			<v:textRect cx="122.625" cy="602" width="245.25" height="20"/>
			<rect x="0" y="592" width="245.25" height="20" class="st4"/>
			<text x="4" y="605.6" class="st6" v:langID="1033"><v:paragraph/><v:tabList/>Baseurl: /tracking/groups/:group_id</text>		</g>
		<g id="group41-16" transform="translate(248.087,-107.482)" v:mID="41" v:groupContext="group">
			<title>Sheet.41</title>
			<g id="shape35-17" v:mID="35" v:groupContext="shape">
				<title>Simple Arrow.35</title>
				<desc>Queue Data</desc>
				<v:userDefs>
					<v:ud v:nameU="visVersion" v:val="VT0(15):26"/>
					<v:ud v:nameU="ArrowType" v:prompt="" v:val="VT0(2):26"/>
				</v:userDefs>
				<v:textBlock v:margins="rect(4,4,4,4)"/>
				<v:textRect cx="136.957" cy="612" width="273.92" height="0"/>
				<path d="M0 612 L12 600 L12 606 L273.91 606 L273.91 612 L273.91 618 L12 618 L12 624 L0 612 Z" class="st7"/>
				<text x="112.69" y="615" class="st8" v:langID="1033"><v:paragraph v:horizAlign="1"/><v:tabList/>Queue Data</text>			</g>
			<g id="shape36-20" v:mID="36" v:groupContext="shape" transform="translate(277.826,1201.5) rotate(180)">
				<title>Simple Arrow.36</title>
				<desc>PUT /queues/:queue_id</desc>
				<v:userDefs>
					<v:ud v:nameU="visVersion" v:val="VT0(15):26"/>
					<v:ud v:nameU="ArrowType" v:prompt="" v:val="VT0(2):26"/>
				</v:userDefs>
				<v:textBlock v:margins="rect(4,4,4,4)"/>
				<v:textRect cx="136.957" cy="612" width="273.92" height="0" transform="rotate(180)"/>
				<path d="M0 612 L12 600 L12 606 L273.91 606 L273.91 612 L273.91 618 L12 618 L12 624 L0 612 Z" class="st7"/>
				<text x="-185.45" y="-609" transform="rotate(180)" class="st8" v:langID="1033"><v:paragraph v:horizAlign="1"/><v:tabList/>PUT /queues/:queue_id</text>			</g>
		</g>
		<g id="group42-23" transform="translate(248.087,-161.898)" v:mID="42" v:groupContext="group">
			<title>Sheet.42</title>
			<g id="shape29-24" v:mID="29" v:groupContext="shape" transform="translate(277.008,1201.09) rotate(180)">
				<title>Simple Arrow</title>
				<desc>POST /libraries/select</desc>
				<v:userDefs>
					<v:ud v:nameU="visVersion" v:val="VT0(15):26"/>
					<v:ud v:nameU="ArrowType" v:prompt="" v:val="VT0(2):26"/>
				</v:userDefs>
				<v:textBlock v:margins="rect(4,4,4,4)"/>
				<v:textRect cx="136.957" cy="612" width="273.92" height="0" transform="rotate(180)"/>
				<path d="M0 612 L12 600 L12 606 L273.91 606 L273.91 612 L273.91 618 L12 618 L12 624 L0 612 Z" class="st7"/>
				<text x="-180.84" y="-609" transform="rotate(180)" class="st8" v:langID="1033"><v:paragraph v:horizAlign="1"/><v:tabList/>POST /libraries/select</text>			</g>
			<g id="shape34-27" v:mID="34" v:groupContext="shape">
				<title>Simple Arrow.34</title>
				<desc>Search Results</desc>
				<v:userDefs>
					<v:ud v:nameU="visVersion" v:val="VT0(15):26"/>
					<v:ud v:nameU="ArrowType" v:prompt="" v:val="VT0(2):26"/>
				</v:userDefs>
				<v:textBlock v:margins="rect(4,4,4,4)"/>
				<v:textRect cx="136.957" cy="612" width="273.92" height="0"/>
				<path d="M0 612 L12 600 L12 606 L273.91 606 L273.91 612 L273.91 618 L12 618 L12 624 L0 612 Z" class="st7"/>
				<text x="107.6" y="615" class="st8" v:langID="1033"><v:paragraph v:horizAlign="1"/><v:tabList/>Search Results</text>			</g>
		</g>
		<g id="group43-30" transform="translate(248.087,-379.385)" v:mID="43" v:groupContext="group">
			<title>Sheet.43</title>
			<g id="shape30-31" v:mID="30" v:groupContext="shape">
				<title>Simple Arrow.30</title>
				<desc>Queue Template</desc>
				<v:userDefs>
					<v:ud v:nameU="visVersion" v:val="VT0(15):26"/>
					<v:ud v:nameU="ArrowType" v:prompt="" v:val="VT0(2):26"/>
				</v:userDefs>
				<v:textBlock v:margins="rect(4,4,4,4)"/>
				<v:textRect cx="136.957" cy="612" width="273.92" height="0"/>
				<path d="M0 612 L12 600 L12 606 L273.91 606 L273.91 612 L273.91 618 L12 618 L12 624 L0 612 Z" class="st7"/>
				<text x="102.98" y="615" class="st8" v:langID="1033"><v:paragraph v:horizAlign="1"/><v:tabList/>Queue Template</text>			</g>
			<g id="shape33-34" v:mID="33" v:groupContext="shape" transform="translate(279.462,1200.27) rotate(180)">
				<title>Simple Arrow.33</title>
				<desc>GET /queue_templates/:template_id</desc>
				<v:userDefs>
					<v:ud v:nameU="visVersion" v:val="VT0(15):26"/>
					<v:ud v:nameU="ArrowType" v:prompt="" v:val="VT0(2):26"/>
				</v:userDefs>
				<v:textBlock v:margins="rect(4,4,4,4)"/>
				<v:textRect cx="136.957" cy="612" width="273.92" height="0" transform="rotate(180)"/>
				<path d="M0 612 L12 600 L12 606 L273.91 606 L273.91 612 L273.91 618 L12 618 L12 624 L0 612 Z" class="st7"/>
				<text x="-211.86" y="-609" transform="rotate(180)" class="st8" v:langID="1033"><v:paragraph v:horizAlign="1"/><v:tabList/>GET /queue_templates/:template_id</text>			</g>
		</g>
		<g id="shape66-37" v:mID="66" v:groupContext="shape" transform="translate(72,-382.446)">
			<title>Partial bracket text</title>
			<desc>Load the template to add</desc>
			<v:userDefs>
				<v:ud v:nameU="visVersion" v:val="VT0(15):26"/>
			</v:userDefs>
			<v:textBlock v:margins="rect(4,4,4,4)"/>
			<v:textRect cx="63" cy="603.198" width="126" height="17.6036"/>
			<path d="M18 594.4 L0 594.4 L0 612 L18 612" class="st9"/>
			<text x="4" y="605.6" class="st10" v:langID="1033"><v:paragraph/><v:tabList/>Load the template to add</text>		</g>
		<g id="shape68-41" v:mID="68" v:groupContext="shape" transform="translate(36,-377.521)">
			<title>Sheet.68</title>
			<desc>2</desc>
			<v:textBlock v:margins="rect(4,4,4,4)"/>
			<v:textRect cx="11.8636" cy="600.136" width="23.73" height="23.7273"/>
			<ellipse cx="11.8636" cy="600.136" rx="11.8636" ry="11.8636" class="st11"/>
			<text x="8.82" y="603.74" class="st3" v:langID="1033"><v:paragraph v:horizAlign="1"/><v:tabList/>2</text>		</g>
		<g id="shape69-44" v:mID="69" v:groupContext="shape" transform="translate(72,-144)">
			<title>Partial bracket text.69</title>
			<desc>Search for a specific item to add to an existing or new queue...</desc>
			<v:userDefs>
				<v:ud v:nameU="visVersion" v:val="VT0(15):26"/>
			</v:userDefs>
			<v:textBlock v:margins="rect(4,4,4,4)"/>
			<v:textRect cx="63" cy="583.998" width="126" height="56.0034"/>
			<path d="M18 556 L0 556 L0 612 L18 612" class="st9"/>
			<text x="4" y="567.2" class="st10" v:langID="1033"><v:paragraph/><v:tabList/>Search for a specific item to add to <tspan
						x="4" dy="1.2em" class="st12">an existing or new queue.  Items </tspan><tspan x="4" dy="1.2em" class="st12">must have the library they </tspan><tspan
						x="4" dy="1.2em" class="st12">associated with included in </tspan>the <tspan x="4" dy="1.2em" class="st12">queue operation.</tspan></text>		</g>
		<g id="shape70-52" v:mID="70" v:groupContext="shape" transform="translate(36,-158.274)">
			<title>Sheet.70</title>
			<desc>2</desc>
			<v:textBlock v:margins="rect(4,4,4,4)"/>
			<v:textRect cx="11.8636" cy="600.136" width="23.73" height="23.7273"/>
			<ellipse cx="11.8636" cy="600.136" rx="11.8636" ry="11.8636" class="st11"/>
			<text x="8.82" y="603.74" class="st3" v:langID="1033"><v:paragraph v:horizAlign="1"/><v:tabList/>2</text>		</g>
		<g id="shape71-55" v:mID="71" v:groupContext="shape" transform="translate(72,-102.697)">
			<title>Partial bracket text.71</title>
			<desc>Assign actors to each role. The queue primary actor contact m...</desc>
			<v:userDefs>
				<v:ud v:nameU="visVersion" v:val="VT0(15):26"/>
			</v:userDefs>
			<v:textBlock v:margins="rect(4,4,4,4)"/>
			<v:textRect cx="63" cy="593.598" width="126" height="36.8035"/>
			<path d="M18 575.2 L0 575.2 L0 612 L18 612" class="st9"/>
			<text x="4" y="586.4" class="st10" v:langID="1033"><v:paragraph/><v:tabList/>Assign actors to each role.  The <tspan
						x="4" dy="1.2em" class="st12">queue primary actor contact must </tspan><tspan x="4" dy="1.2em" class="st12">be assigned to the matching role.</tspan></text>		</g>
		<g id="shape72-61" v:mID="72" v:groupContext="shape" transform="translate(36,-107.371)">
			<title>Sheet.72</title>
			<desc>3</desc>
			<v:textBlock v:margins="rect(4,4,4,4)"/>
			<v:textRect cx="11.8636" cy="600.136" width="23.73" height="23.7273"/>
			<ellipse cx="11.8636" cy="600.136" rx="11.8636" ry="11.8636" class="st11"/>
			<text x="8.82" y="603.74" class="st3" v:langID="1033"><v:paragraph v:horizAlign="1"/><v:tabList/>3</text>		</g>
		<g id="group73-64" transform="translate(248.087,-427.5)" v:mID="73" v:groupContext="group">
			<title>Sheet.73</title>
			<g id="shape74-65" v:mID="74" v:groupContext="shape">
				<title>Simple Arrow.30</title>
				<desc>Queue Template</desc>
				<v:userDefs>
					<v:ud v:nameU="visVersion" v:val="VT0(15):26"/>
					<v:ud v:nameU="ArrowType" v:prompt="" v:val="VT0(2):26"/>
				</v:userDefs>
				<v:textBlock v:margins="rect(4,4,4,4)"/>
				<v:textRect cx="136.957" cy="612" width="273.92" height="0"/>
				<path d="M0 612 L12 600 L12 606 L273.91 606 L273.91 612 L273.91 618 L12 618 L12 624 L0 612 Z" class="st7"/>
				<text x="102.98" y="615" class="st8" v:langID="1033"><v:paragraph v:horizAlign="1"/><v:tabList/>Queue Template</text>			</g>
			<g id="shape75-68" v:mID="75" v:groupContext="shape" transform="translate(279.462,1200.27) rotate(180)">
				<title>Simple Arrow.33</title>
				<desc>GET /queue_templates/:template_id</desc>
				<v:userDefs>
					<v:ud v:nameU="visVersion" v:val="VT0(15):26"/>
					<v:ud v:nameU="ArrowType" v:prompt="" v:val="VT0(2):26"/>
				</v:userDefs>
				<v:textBlock v:margins="rect(4,4,4,4)"/>
				<v:textRect cx="136.957" cy="612" width="273.92" height="0" transform="rotate(180)"/>
				<path d="M0 612 L12 600 L12 606 L273.91 606 L273.91 612 L273.91 618 L12 618 L12 624 L0 612 Z" class="st7"/>
				<text x="-211.86" y="-609" transform="rotate(180)" class="st8" v:langID="1033"><v:paragraph v:horizAlign="1"/><v:tabList/>GET /queue_templates/:template_id</text>			</g>
		</g>
		<g id="shape76-71" v:mID="76" v:groupContext="shape" transform="translate(72,-423.45)">
			<title>Partial bracket text.76</title>
			<desc>Get the configured queue templates</desc>
			<v:userDefs>
				<v:ud v:nameU="visVersion" v:val="VT0(15):26"/>
			</v:userDefs>
			<v:textBlock v:margins="rect(4,4,4,4)"/>
			<v:textRect cx="63" cy="598.398" width="126" height="27.2035"/>
			<path d="M18 584.8 L0 584.8 L0 612 L18 612" class="st9"/>
			<text x="4" y="596" class="st10" v:langID="1033"><v:paragraph/><v:tabList/>Get the configured queue <tspan x="4"
						dy="1.2em" class="st12">templates</tspan></text>		</g>
		<g id="shape77-76" v:mID="77" v:groupContext="shape" transform="translate(36,-423.324)">
			<title>Sheet.77</title>
			<desc>1</desc>
			<v:textBlock v:margins="rect(4,4,4,4)"/>
			<v:textRect cx="11.8636" cy="600.136" width="23.73" height="23.7273"/>
			<ellipse cx="11.8636" cy="600.136" rx="11.8636" ry="11.8636" class="st11"/>
			<text x="8.82" y="603.74" class="st3" v:langID="1033"><v:paragraph v:horizAlign="1"/><v:tabList/>1</text>		</g>
		<g id="group78-79" transform="translate(248.087,-211.785)" v:mID="78" v:groupContext="group">
			<title>Sheet.78</title>
			<g id="shape79-80" v:mID="79" v:groupContext="shape">
				<title>Simple Arrow.35</title>
				<desc>Queue Data</desc>
				<v:userDefs>
					<v:ud v:nameU="visVersion" v:val="VT0(15):26"/>
					<v:ud v:nameU="ArrowType" v:prompt="" v:val="VT0(2):26"/>
				</v:userDefs>
				<v:textBlock v:margins="rect(4,4,4,4)"/>
				<v:textRect cx="136.957" cy="612" width="273.92" height="0"/>
				<path d="M0 612 L12 600 L12 606 L273.91 606 L273.91 612 L273.91 618 L12 618 L12 624 L0 612 Z" class="st7"/>
				<text x="112.69" y="615" class="st8" v:langID="1033"><v:paragraph v:horizAlign="1"/><v:tabList/>Queue Data</text>			</g>
			<g id="shape80-83" v:mID="80" v:groupContext="shape" transform="translate(277.826,1201.5) rotate(180)">
				<title>Simple Arrow.36</title>
				<desc>GET /queues/:queue_id</desc>
				<v:userDefs>
					<v:ud v:nameU="visVersion" v:val="VT0(15):26"/>
					<v:ud v:nameU="ArrowType" v:prompt="" v:val="VT0(2):26"/>
				</v:userDefs>
				<v:textBlock v:margins="rect(4,4,4,4)"/>
				<v:textRect cx="136.957" cy="612" width="273.92" height="0" transform="rotate(180)"/>
				<path d="M0 612 L12 600 L12 606 L273.91 606 L273.91 612 L273.91 618 L12 618 L12 624 L0 612 Z" class="st7"/>
				<text x="-186.38" y="-609" transform="rotate(180)" class="st8" v:langID="1033"><v:paragraph v:horizAlign="1"/><v:tabList/>GET  /queues/:queue_id</text>			</g>
		</g>
		<g id="shape81-86" v:mID="81" v:groupContext="shape" transform="translate(72,-207)">
			<title>Partial bracket text.81</title>
			<desc>Fetch an existing queue from the record. That will receive th...</desc>
			<v:userDefs>
				<v:ud v:nameU="visVersion" v:val="VT0(15):26"/>
			</v:userDefs>
			<v:textBlock v:margins="rect(4,4,4,4)"/>
			<v:textRect cx="63" cy="593.598" width="126" height="36.8035"/>
			<path d="M18 575.2 L0 575.2 L0 612 L18 612" class="st9"/>
			<text x="4" y="586.4" class="st10" v:langID="1033"><v:paragraph/><v:tabList/>Fetch an existing queue from the <tspan
						x="4" dy="1.2em" class="st12">record.  That will receive the new </tspan><tspan x="4" dy="1.2em"
						class="st12">item.</tspan></text>		</g>
		<g id="shape82-92" v:mID="82" v:groupContext="shape" transform="translate(36,-211.674)">
			<title>Sheet.82</title>
			<desc>1</desc>
			<v:textBlock v:margins="rect(4,4,4,4)"/>
			<v:textRect cx="11.8636" cy="600.136" width="23.73" height="23.7273"/>
			<ellipse cx="11.8636" cy="600.136" rx="11.8636" ry="11.8636" class="st11"/>
			<text x="8.82" y="603.74" class="st3" v:langID="1033"><v:paragraph v:horizAlign="1"/><v:tabList/>1</text>		</g>
		<g id="shape83-95" v:mID="83" v:groupContext="shape" transform="translate(45,-292.5)">
			<title>Sheet.83</title>
			<desc>or</desc>
			<v:textBlock v:margins="rect(4,4,4,4)"/>
			<v:textRect cx="342" cy="612" width="684" height="0"/>
			<path d="M0 612 L684 612" class="st13"/>
			<rect v:rectContext="textBkgnd" x="336.744" y="604.8" width="10.5117" height="14.4001" class="st14"/>
			<text x="336.74" y="615.6" class="st15" v:langID="1033"><v:paragraph v:horizAlign="1"/><v:tabList/>or</text>		</g>
		<g id="shape84-100" v:mID="84" v:groupContext="shape" transform="translate(32,-464)">
			<title>Sheet.84</title>
			<desc>Use a template</desc>
			<v:textBlock v:margins="rect(4,4,4,4)"/>
			<v:textRect cx="76" cy="602" width="152.01" height="20"/>
			<rect x="0" y="592" width="152" height="20" class="st4"/>
			<text x="4" y="605.6" class="st6" v:langID="1033"><v:paragraph/><v:tabList/>Use a template</text>		</g>
		<g id="shape85-103" v:mID="85" v:groupContext="shape" transform="translate(36,-252)">
			<title>Sheet.85</title>
			<desc>Find individual items</desc>
			<v:textBlock v:margins="rect(4,4,4,4)"/>
			<v:textRect cx="76" cy="602" width="152.01" height="20"/>
			<rect x="0" y="592" width="152" height="20" class="st4"/>
			<text x="4" y="605.6" class="st6" v:langID="1033"><v:paragraph/><v:tabList/>Find individual items</text>		</g>
		<g id="group86-106" transform="translate(248.087,-328.785)" v:mID="86" v:groupContext="group">
			<title>Sheet.86</title>
			<g id="shape87-107" v:mID="87" v:groupContext="shape">
				<title>Simple Arrow.35</title>
				<desc>Queue Data</desc>
				<v:userDefs>
					<v:ud v:nameU="visVersion" v:val="VT0(15):26"/>
					<v:ud v:nameU="ArrowType" v:prompt="" v:val="VT0(2):26"/>
				</v:userDefs>
				<v:textBlock v:margins="rect(4,4,4,4)"/>
				<v:textRect cx="136.957" cy="612" width="273.92" height="0"/>
				<path d="M0 612 L12 600 L12 606 L273.91 606 L273.91 612 L273.91 618 L12 618 L12 624 L0 612 Z" class="st7"/>
				<text x="112.69" y="615" class="st8" v:langID="1033"><v:paragraph v:horizAlign="1"/><v:tabList/>Queue Data</text>			</g>
			<g id="shape88-110" v:mID="88" v:groupContext="shape" transform="translate(277.826,1201.5) rotate(180)">
				<title>Simple Arrow.36</title>
				<desc>POST /queues</desc>
				<v:userDefs>
					<v:ud v:nameU="visVersion" v:val="VT0(15):26"/>
					<v:ud v:nameU="ArrowType" v:prompt="" v:val="VT0(2):26"/>
				</v:userDefs>
				<v:textBlock v:margins="rect(4,4,4,4)"/>
				<v:textRect cx="136.957" cy="612" width="273.92" height="0" transform="rotate(180)"/>
				<path d="M0 612 L12 600 L12 606 L273.91 606 L273.91 612 L273.91 618 L12 618 L12 624 L0 612 Z" class="st7"/>
				<text x="-166.59" y="-609" transform="rotate(180)" class="st8" v:langID="1033"><v:paragraph v:horizAlign="1"/><v:tabList/>POST  /queues</text>			</g>
		</g>
		<g id="shape89-113" v:mID="89" v:groupContext="shape" transform="translate(72,-314.4)">
			<title>Partial bracket text.89</title>
			<desc>Assign actors to each role. The queue primary actor contact m...</desc>
			<v:userDefs>
				<v:ud v:nameU="visVersion" v:val="VT0(15):26"/>
			</v:userDefs>
			<v:textBlock v:margins="rect(4,4,4,4)"/>
			<v:textRect cx="63" cy="583.998" width="126" height="56.0034"/>
			<path d="M18 556 L0 556 L0 612 L18 612" class="st9"/>
			<text x="4" y="567.2" class="st10" v:langID="1033"><v:paragraph/><v:tabList/>Assign actors to each role.  The <tspan
						x="4" dy="1.2em" class="st12">queue primary actor contact must </tspan><tspan x="4" dy="1.2em" class="st12">be assigned to the matching role.  </tspan><tspan
						x="4" dy="1.2em" class="st12">Each queue must be added </tspan><tspan x="4" dy="1.2em" class="st12">individually.</tspan></text>		</g>
		<g id="shape90-121" v:mID="90" v:groupContext="shape" transform="translate(36,-328.674)">
			<title>Sheet.90</title>
			<desc>3</desc>
			<v:textBlock v:margins="rect(4,4,4,4)"/>
			<v:textRect cx="11.8636" cy="600.136" width="23.73" height="23.7273"/>
			<ellipse cx="11.8636" cy="600.136" rx="11.8636" ry="11.8636" class="st11"/>
			<text x="8.82" y="603.74" class="st3" v:langID="1033"><v:paragraph v:horizAlign="1"/><v:tabList/>3</text>		</g>
	</g>
</svg>
